<svg width="74" height="74" viewBox="0 0 74 74" fill="none" xmlns="http://www.w3.org/2000/svg">
<circle cx="37" cy="37" r="37" fill="#9B51E0"/>
<path d="M44.4803 23.9173C44.4803 28.7412 41.0708 32.5347 36.9999 32.5347C32.9291 32.5347 29.5195 28.7412 29.5195 23.9173C29.5195 19.0935 32.9291 15.3 36.9999 15.3C41.0708 15.3 44.4803 19.0935 44.4803 23.9173Z" stroke="white"/>
<mask id="path-3-inside-1" fill="white">
<path fill-rule="evenodd" clip-rule="evenodd" d="M24.6667 59.2H49.3334C47.4123 44.857 42.6146 34.6923 37.0001 34.6923C31.3856 34.6923 26.5879 44.857 24.6667 59.2Z"/>
</mask>
<path d="M24.6667 59.2L23.6756 59.0672L23.5239 60.2H24.6667V59.2ZM49.3334 59.2V60.2H50.4763L50.3246 59.0672L49.3334 59.2ZM24.6667 60.2H49.3334V58.2H24.6667V60.2ZM37.0001 35.6923C38.0805 35.6923 39.2016 36.177 40.3457 37.2379C41.4953 38.3039 42.6164 39.9078 43.6553 42.0105C45.7319 46.2134 47.3902 52.2245 48.3423 59.3327L50.3246 59.0672C49.3556 51.8325 47.6545 45.5897 45.4483 41.1246C44.3458 38.8932 43.0947 37.0595 41.7056 35.7714C40.311 34.4782 38.727 33.6923 37.0001 33.6923V35.6923ZM25.6579 59.3327C26.61 52.2245 28.2683 46.2134 30.3449 42.0105C31.3838 39.9078 32.5049 38.3039 33.6545 37.2379C34.7986 36.177 35.9197 35.6923 37.0001 35.6923V33.6923C35.2732 33.6923 33.6892 34.4782 32.2946 35.7714C30.9055 37.0595 29.6544 38.8932 28.5519 41.1246C26.3457 45.5897 24.6446 51.8325 23.6756 59.0672L25.6579 59.3327Z" fill="white" mask="url(#path-3-inside-1)"/>
<path d="M60.5864 25.8116C60.5864 28.9329 58.2703 31.3898 55.5001 31.3898C52.7299 31.3898 50.4138 28.9329 50.4138 25.8116C50.4138 22.6902 52.7299 20.2333 55.5001 20.2333C58.2703 20.2333 60.5864 22.6902 60.5864 25.8116Z" stroke="white"/>
<mask id="path-6-inside-2" fill="white">
<path fill-rule="evenodd" clip-rule="evenodd" d="M46.8667 49.3334H64.1334C62.7886 39.7714 59.4302 32.995 55.5 32.995C51.5699 32.995 48.2115 39.7714 46.8667 49.3334Z"/>
</mask>
<path d="M46.8667 49.3334L45.8764 49.1941L45.7162 50.3334H46.8667V49.3334ZM64.1334 49.3334V50.3334H65.2838L65.1236 49.1941L64.1334 49.3334ZM46.8667 50.3334H64.1334V48.3334H46.8667V50.3334ZM55.5 33.995C56.8568 33.995 58.4263 35.2011 59.8986 38.0389C61.3278 40.794 62.4801 44.7585 63.1431 49.4726L65.1236 49.1941C64.4418 44.3463 63.2425 40.1416 61.6739 37.1179C60.1482 34.1771 58.0735 31.995 55.5 31.995V33.995ZM47.857 49.4726C48.52 44.7585 49.6722 40.794 51.1015 38.0389C52.5738 35.2011 54.1433 33.995 55.5 33.995V31.995C52.9266 31.995 50.8519 34.1771 49.3262 37.1179C47.7575 40.1416 46.5582 44.3463 45.8764 49.1941L47.857 49.4726Z" fill="white" mask="url(#path-6-inside-2)"/>
<path d="M23.5864 25.8116C23.5864 28.9329 21.2703 31.3898 18.5001 31.3898C15.7299 31.3898 13.4138 28.9329 13.4138 25.8116C13.4138 22.6902 15.7299 20.2333 18.5001 20.2333C21.2703 20.2333 23.5864 22.6902 23.5864 25.8116Z" stroke="white"/>
<mask id="path-9-inside-3" fill="white">
<path fill-rule="evenodd" clip-rule="evenodd" d="M9.8667 49.3334H27.1334C25.7886 39.7714 22.4302 32.995 18.5 32.995C14.5699 32.995 11.2115 39.7714 9.8667 49.3334Z"/>
</mask>
<path d="M9.8667 49.3334L8.87644 49.1941L8.71622 50.3334H9.8667V49.3334ZM27.1334 49.3334V50.3334H28.2838L28.1236 49.1941L27.1334 49.3334ZM9.8667 50.3334H27.1334V48.3334H9.8667V50.3334ZM18.5 33.995C19.8568 33.995 21.4263 35.2011 22.8986 38.0389C24.3278 40.794 25.4801 44.7585 26.1431 49.4726L28.1236 49.1941C27.4418 44.3463 26.2425 40.1416 24.6739 37.1179C23.1482 34.1771 21.0735 31.995 18.5 31.995V33.995ZM10.857 49.4726C11.52 44.7585 12.6722 40.794 14.1015 38.0389C15.5738 35.2011 17.1433 33.995 18.5 33.995V31.995C15.9266 31.995 13.8519 34.1771 12.3262 37.1179C10.7575 40.1416 9.55824 44.3463 8.87644 49.1941L10.857 49.4726Z" fill="white" mask="url(#path-9-inside-3)"/>
</svg>
