<svg width="74" height="74" viewBox="0 0 74 74" fill="none" xmlns="http://www.w3.org/2000/svg">
<circle cx="37" cy="37" r="37" fill="#0094FF"/>
<path d="M10.9847 33.3L37 20.2924L63.0153 33.3L37 46.3077L10.9847 33.3Z" stroke="white"/>
<mask id="path-3-inside-1" fill="white">
<path fill-rule="evenodd" clip-rule="evenodd" d="M22.3688 52.4727C23.2989 49.2524 24.7114 46.403 26.474 44.1182L36.9044 49.3334C36.9362 49.3334 36.9681 49.3333 37 49.3333C37.0318 49.3333 37.0636 49.3334 37.0954 49.3334L47.5259 44.1182C49.2884 46.4029 50.701 49.2523 51.6311 52.4726C51.7423 52.6554 51.7999 52.8427 51.7999 53.0333C51.7999 53.0481 51.7996 53.0628 51.7989 53.0774C51.7992 53.0787 51.7996 53.0799 51.7999 53.0812H51.7987C51.6963 55.1026 45.1099 56.7333 37 56.7333C28.89 56.7333 22.3036 55.1026 22.2012 53.0812H22.2C22.2003 53.0799 22.2006 53.0786 22.201 53.0773C22.2003 53.0627 22.2 53.048 22.2 53.0333C22.2 52.8427 22.2576 52.6555 22.3688 52.4727Z"/>
</mask>
<path d="M26.474 44.1182L26.9212 43.2238L26.185 42.8556L25.6822 43.5074L26.474 44.1182ZM22.3688 52.4727L23.2232 52.9922L23.2925 52.8783L23.3295 52.7502L22.3688 52.4727ZM36.9044 49.3334L36.4572 50.2278L36.6691 50.3338L36.906 50.3334L36.9044 49.3334ZM37.0954 49.3334L37.0938 50.3334L37.3307 50.3338L37.5426 50.2278L37.0954 49.3334ZM47.5259 44.1182L48.3176 43.5074L47.8149 42.8556L47.0786 43.2237L47.5259 44.1182ZM51.6311 52.4726L50.6703 52.7501L50.7073 52.8782L50.7767 52.9922L51.6311 52.4726ZM51.7989 53.0774L50.8 53.0307L50.7928 53.1849L50.8324 53.334L51.7989 53.0774ZM51.7999 53.0812V54.0812H53.0989L52.7666 52.8253L51.7999 53.0812ZM51.7987 53.0812V52.0812H50.8481L50.8 53.0306L51.7987 53.0812ZM22.2012 53.0812L23.1999 53.0306L23.1518 52.0812H22.2012V53.0812ZM22.2 53.0812L21.2336 52.8238L20.8988 54.0812H22.2V53.0812ZM22.201 53.0773L23.1673 53.3346L23.2071 53.1852L23.1999 53.0308L22.201 53.0773ZM25.6822 43.5074C23.8336 45.9037 22.3685 48.8696 21.408 52.1952L23.3295 52.7502C24.2292 49.6352 25.5892 46.9023 27.2658 44.729L25.6822 43.5074ZM37.3516 48.439L26.9212 43.2238L26.0268 45.0126L36.4572 50.2278L37.3516 48.439ZM36.906 50.3334C36.9373 50.3334 36.9686 50.3333 37 50.3333V48.3333C36.9675 48.3333 36.9352 48.3334 36.9029 48.3334L36.906 50.3334ZM37 50.3333C37.0313 50.3333 37.0625 50.3334 37.0938 50.3334L37.0969 48.3334C37.0646 48.3334 37.0323 48.3333 37 48.3333V50.3333ZM47.0786 43.2237L36.6481 48.439L37.5426 50.2278L47.9731 45.0126L47.0786 43.2237ZM52.5918 52.1951C51.6313 48.8695 50.1662 45.9036 48.3176 43.5074L46.7341 44.729C48.4106 46.9022 49.7706 49.6351 50.6703 52.7501L52.5918 52.1951ZM50.7767 52.9922C50.7934 53.0197 50.7988 53.0355 50.8001 53.0399C50.8012 53.0435 50.7999 53.0404 50.7999 53.0333H52.7999C52.7999 52.6316 52.6763 52.2668 52.4855 51.9529L50.7767 52.9922ZM50.7999 53.0333C50.7999 53.0323 50.8 53.0314 50.8 53.0307L52.7978 53.1241C52.7992 53.0941 52.7999 53.0638 52.7999 53.0333H50.7999ZM52.7666 52.8253C52.7662 52.8239 52.7659 52.8226 52.7657 52.8219C52.7656 52.8215 52.7656 52.8213 52.7655 52.8211C52.7655 52.8209 52.7654 52.8209 52.7654 52.8209L50.8324 53.334C50.8327 53.3351 50.833 53.3363 50.8331 53.3367C50.8333 53.3373 50.8332 53.3372 50.8332 53.337L52.7666 52.8253ZM51.7987 54.0812H51.7999V52.0812H51.7987V54.0812ZM50.8 53.0306C50.8022 52.9872 50.795 53.2287 50.0844 53.6382C49.4412 54.0088 48.4566 54.3747 47.1623 54.6945C44.5879 55.3305 40.998 55.7333 37 55.7333V57.7333C41.1119 57.7333 44.8702 57.3208 47.642 56.6361C49.0209 56.2955 50.209 55.8747 51.083 55.371C51.8896 54.9062 52.7441 54.1858 52.7975 53.1318L50.8 53.0306ZM37 55.7333C33.0019 55.7333 29.412 55.3305 26.8376 54.6945C25.5433 54.3747 24.5587 54.0088 23.9155 53.6382C23.2049 53.2287 23.1977 52.9872 23.1999 53.0306L21.2024 53.1318C21.2558 54.1858 22.1103 54.9062 22.9169 55.371C23.7909 55.8747 24.979 56.2955 26.3579 56.6361C29.1297 57.3208 32.888 57.7333 37 57.7333V55.7333ZM22.2 54.0812H22.2012V52.0812H22.2V54.0812ZM21.2347 52.8199C21.2344 52.8208 21.2342 52.8216 21.2341 52.8222C21.2339 52.8229 21.2337 52.8234 21.2336 52.8238L23.1663 53.3385C23.1665 53.3377 23.1667 53.3368 23.1669 53.3362C23.1671 53.3355 23.1672 53.3351 23.1673 53.3346L21.2347 52.8199ZM23.1999 53.0308C23.1999 53.0314 23.2 53.0323 23.2 53.0333H21.2C21.2 53.0637 21.2007 53.0939 21.2021 53.1238L23.1999 53.0308ZM23.2 53.0333C23.2 53.0404 23.1987 53.0435 23.1998 53.0399C23.2011 53.0355 23.2065 53.0197 23.2232 52.9922L21.5143 51.9532C21.3235 52.267 21.2 52.6317 21.2 53.0333H23.2Z" fill="white" mask="url(#path-3-inside-1)"/>
<path d="M37 33.0534L49.3333 27.6267" stroke="white" stroke-linecap="round"/>
<path d="M49.3333 41.9333L49.3333 39.4667" stroke="white" stroke-linecap="round"/>
</svg>
