<svg width="74" height="74" viewBox="0 0 74 74" fill="none" xmlns="http://www.w3.org/2000/svg">
<circle cx="37" cy="37" r="37" fill="#219653"/>
<circle cx="37" cy="37" r="37" fill="#219653"/>
<path d="M20.4284 20.4282L20.5754 19.9503L19.6727 19.6726L19.9505 20.5752L20.4284 20.4282ZM52.9992 52.9991L53.1166 53.4851L53.4136 53.4134L53.4853 53.1164L52.9992 52.9991ZM56.5216 38.4064L56.0356 38.2891L56.5216 38.4064ZM51.7756 30.0735L51.6286 30.5514L51.7756 30.0735ZM30.0737 51.7754L29.5958 51.9225L30.0737 51.7754ZM38.4066 56.5214L38.5239 57.0075L38.4066 56.5214ZM19.9505 20.5752L29.5958 51.9225L30.5516 51.6284L20.9063 20.2811L19.9505 20.5752ZM38.5239 57.0075L53.1166 53.4851L52.8819 52.513L38.2893 56.0354L38.5239 57.0075ZM53.4853 53.1164L57.0076 38.5238L56.0356 38.2891L52.5132 52.8818L53.4853 53.1164ZM51.9227 29.5956L20.5754 19.9503L20.2813 20.9061L51.6286 30.5514L51.9227 29.5956ZM57.0076 38.5238C57.9375 34.6717 55.7101 30.761 51.9227 29.5956L51.6286 30.5514C54.9111 31.5614 56.8414 34.9507 56.0356 38.2891L57.0076 38.5238ZM29.5958 51.9225C30.7612 55.71 34.6719 57.9373 38.5239 57.0075L38.2893 56.0354C34.9508 56.8412 31.5616 54.9109 30.5516 51.6284L29.5958 51.9225Z" fill="white"/>
<line x1="37.783" y1="38.5233" x2="55.8947" y2="56.6349" stroke="white" stroke-linecap="round"/>
</svg>
