<svg width="25" height="25" viewBox="0 0 25 25" fill="none" xmlns="http://www.w3.org/2000/svg">
<path fill-rule="evenodd" clip-rule="evenodd" d="M3 2.94946C1.34315 2.94946 0 4.29261 0 5.94947V22C0 23.6569 1.34315 25 3 25H22C23.6569 25 25 23.6569 25 22V5.94946C25 4.29261 23.6569 2.94946 22 2.94946H3ZM3.95541 8.70789C2.29856 8.70789 0.955414 10.051 0.955414 11.7079V21.1573C0.955414 22.8142 2.29856 24.1573 3.95541 24.1573H21.0446C22.7014 24.1573 24.0446 22.8142 24.0446 21.1573V11.7079C24.0446 10.051 22.7014 8.70789 21.0446 8.70789H3.95541Z" fill="#0094FF"/>
<path d="M5.09558 1.5C5.09558 0.671572 5.76715 0 6.59558 0H7.57647C8.4049 0 9.07647 0.671573 9.07647 1.5V2.94944H5.09558V1.5Z" fill="#0094FF"/>
<path d="M16.0828 1.5C16.0828 0.671572 16.7543 0 17.5828 0H18.5637C19.3921 0 20.0637 0.671573 20.0637 1.5V2.94944H16.0828V1.5Z" fill="#0094FF"/>
<rect x="10.191" y="11.3765" width="4.61783" height="4.07304" rx="1" fill="#0094FF"/>
<rect x="10.191" y="17.4158" width="4.61783" height="4.07303" rx="1" fill="#0094FF"/>
<rect x="17.6752" y="17.4158" width="4.61784" height="4.07303" rx="1" fill="#0094FF"/>
<rect x="17.6752" y="11.3765" width="4.61784" height="4.07304" rx="1" fill="#0094FF"/>
<rect x="2.70703" y="11.3765" width="4.61783" height="4.07304" rx="1" fill="#0094FF"/>
<rect x="2.70703" y="17.4158" width="4.61783" height="4.07303" rx="1" fill="#0094FF"/>
</svg>
