<svg width="30" height="30" viewBox="0 0 30 30" fill="none" xmlns="http://www.w3.org/2000/svg">
<circle cx="15" cy="15" r="15" fill="#9B51E0"/>
<path d="M17.7352 9.69623C17.7352 11.5261 16.4501 12.8925 14.9999 12.8925C13.5498 12.8925 12.2646 11.5261 12.2646 9.69623C12.2646 7.86637 13.5498 6.5 14.9999 6.5C16.4501 6.5 17.7352 7.86637 17.7352 9.69623Z" stroke="white"/>
<mask id="path-3-inside-1" fill="white">
<path fill-rule="evenodd" clip-rule="evenodd" d="M9.99996 24H20C19.2211 18.1852 17.2761 14.0645 15 14.0645C12.7238 14.0645 10.7788 18.1852 9.99996 24Z"/>
</mask>
<path d="M9.99996 24L9.00881 23.8672L8.85708 25H9.99996V24ZM20 24V25H21.1428L20.9911 23.8672L20 24ZM9.99996 25H20V23H9.99996V25ZM15 15.0645C15.2458 15.0645 15.5626 15.1714 15.952 15.5324C16.3469 15.8986 16.7627 16.4805 17.1649 17.2947C17.9683 18.9206 18.6279 21.2886 19.0088 24.1327L20.9911 23.8672C20.5932 20.8966 19.8909 18.2968 18.958 16.4087C18.4921 15.4658 17.9462 14.6541 17.3119 14.0659C16.6721 13.4726 15.8922 13.0645 15 13.0645V15.0645ZM10.9911 24.1327C11.3721 21.2886 12.0316 18.9206 12.835 17.2947C13.2373 16.4805 13.6531 15.8986 14.0479 15.5324C14.4373 15.1714 14.7541 15.0645 15 15.0645V13.0645C14.1077 13.0645 13.3278 13.4726 12.688 14.0659C12.0537 14.6541 11.5078 15.4658 11.0419 16.4087C10.109 18.2968 9.4067 20.8966 9.00881 23.8672L10.9911 24.1327Z" fill="white" mask="url(#path-3-inside-1)"/>
<path d="M24.2648 10.4642C24.2648 11.5895 23.4358 12.4283 22.5001 12.4283C21.5643 12.4283 20.7354 11.5895 20.7354 10.4642C20.7354 9.33881 21.5643 8.5 22.5001 8.5C23.4358 8.5 24.2648 9.33881 24.2648 10.4642Z" stroke="white"/>
<mask id="path-6-inside-2" fill="white">
<path fill-rule="evenodd" clip-rule="evenodd" d="M18.9999 20H25.9999C25.4548 16.1235 24.0932 13.3763 22.4999 13.3763C20.9066 13.3763 19.5451 16.1235 18.9999 20Z"/>
</mask>
<path d="M18.9999 20L18.0097 19.8607L17.8495 21H18.9999V20ZM25.9999 20V21H27.1504L26.9902 19.8607L25.9999 20ZM18.9999 21H25.9999V19H18.9999V21ZM22.4999 14.3763C22.6882 14.3763 23.1743 14.5751 23.7553 15.695C24.2933 16.732 24.7465 18.2679 25.0097 20.1393L26.9902 19.8607C26.7082 17.8557 26.208 16.0797 25.5306 14.774C24.8963 13.5512 23.9049 12.3763 22.4999 12.3763V14.3763ZM19.9902 20.1393C20.2534 18.2679 20.7066 16.732 21.2445 15.695C21.8255 14.5751 22.3116 14.3763 22.4999 14.3763V12.3763C21.0949 12.3763 20.1036 13.5512 19.4692 14.774C18.7918 16.0797 18.2917 17.8557 18.0097 19.8607L19.9902 20.1393Z" fill="white" mask="url(#path-6-inside-2)"/>
<path d="M9.26477 10.4642C9.26477 11.5895 8.43579 12.4283 7.50006 12.4283C6.56433 12.4283 5.73535 11.5895 5.73535 10.4642C5.73535 9.33881 6.56433 8.5 7.50006 8.5C8.43579 8.5 9.26477 9.33881 9.26477 10.4642Z" stroke="white"/>
<mask id="path-9-inside-3" fill="white">
<path fill-rule="evenodd" clip-rule="evenodd" d="M3.99994 20H10.9999C10.4548 16.1235 9.09325 13.3763 7.49994 13.3763C5.90662 13.3763 4.54512 16.1235 3.99994 20Z"/>
</mask>
<path d="M3.99994 20L3.00968 19.8607L2.84945 21H3.99994V20ZM10.9999 20V21H12.1504L11.9902 19.8607L10.9999 20ZM3.99994 21H10.9999V19H3.99994V21ZM7.49994 14.3763C7.68824 14.3763 8.17433 14.5751 8.75533 15.695C9.29332 16.732 9.74649 18.2679 10.0097 20.1393L11.9902 19.8607C11.7082 17.8557 11.208 16.0797 10.5306 14.774C9.89626 13.5512 8.90494 12.3763 7.49994 12.3763V14.3763ZM4.99019 20.1393C5.25338 18.2679 5.70655 16.732 6.24455 15.695C6.82554 14.5751 7.31163 14.3763 7.49994 14.3763V12.3763C6.09493 12.3763 5.10362 13.5512 4.46923 14.774C3.79185 16.0797 3.29167 17.8557 3.00968 19.8607L4.99019 20.1393Z" fill="white" mask="url(#path-9-inside-3)"/>
</svg>
