<svg width="50" height="41" viewBox="0 0 50 41" fill="none" xmlns="http://www.w3.org/2000/svg">
<path fill-rule="evenodd" clip-rule="evenodd" d="M26.5 9.07165C26.0064 9.02425 25.506 9 25 9C24.494 9 23.9936 9.02425 23.5 9.07165V1.5C23.5 0.671574 24.1716 0 25 0C25.8284 0 26.5 0.671574 26.5 1.5V9.07165ZM10 25H0C0 24.1716 0.671573 23.5 1.5 23.5H10.0716C10.0242 23.9936 10 24.494 10 25ZM50 25H41C41 24.494 40.9758 23.9936 40.9284 23.5H48.5C49.3284 23.5 50 24.1716 50 25ZM37.3238 14.7975C37.0082 14.415 36.6716 14.044 36.3138 13.6862C35.9559 13.3284 35.585 12.9917 35.2024 12.6762L40.5564 7.32227C41.1422 6.73648 42.0919 6.73648 42.6777 7.32227C43.2635 7.90805 43.2635 8.8578 42.6777 9.44359L37.3238 14.7975ZM7.06068 9.68198L13.1217 15.7431C13.4373 15.3605 13.7739 14.9895 14.1317 14.6317C14.4896 14.2739 14.8605 13.9372 15.2431 13.6217L9.182 7.56066C8.59621 6.97487 7.64646 6.97487 7.06068 7.56066C6.47489 8.14645 6.47489 9.09619 7.06068 9.68198Z" fill="#FFA800"/>
<path fill-rule="evenodd" clip-rule="evenodd" d="M33 25H38C38 18.0964 32.4036 12.5 25.5 12.5C18.5964 12.5 13 18.0964 13 25H18C18 20.8579 21.3579 17.5 25.5 17.5C29.6421 17.5 33 20.8579 33 25Z" fill="#FFA800"/>
<line x1="1.5" y1="25" x2="48.5" y2="25" stroke="#FFA800" stroke-width="3" stroke-linecap="round"/>
<line x1="12.5" y1="29.5" x2="37.5" y2="29.5" stroke="#FFA800" stroke-width="3" stroke-linecap="round"/>
<line x1="16.5" y1="34.5" x2="33.5" y2="34.5" stroke="#FFA800" stroke-width="3" stroke-linecap="round"/>
<line x1="20.5" y1="39.5" x2="29.5" y2="39.5" stroke="#FFA800" stroke-width="3" stroke-linecap="round"/>
</svg>
