<svg width="31" height="29" viewBox="0 0 31 29" fill="none" xmlns="http://www.w3.org/2000/svg">
<path d="M12.4 19.4235H18.6V26.9378H12.4V19.4235Z" fill="#0094FF"/>
<path d="M4.96002 4.39478H8.68002V13.1615H4.96002V4.39478Z" fill="#0094FF"/>
<path fill-rule="evenodd" clip-rule="evenodd" d="M5.19287 12.5873V26C5.19287 27.6568 6.53602 29 8.19287 29H22.9644C24.6213 29 25.9644 27.6568 25.9644 26V12.5873H23.4644V26C23.4644 26.2761 23.2406 26.5 22.9644 26.5H8.19287C7.91673 26.5 7.69287 26.2761 7.69287 26V12.5873H5.19287Z" fill="#0094FF"/>
<path fill-rule="evenodd" clip-rule="evenodd" d="M15.5 6.26505L27.8999 18.7888L31 15.6577L18.6001 3.13392L18.6009 3.13312L15.5008 0.00198869L15.5 0.0027912L15.4972 0L12.3971 3.13113L12.3998 3.13392L0 15.6576L3.10016 18.7888L15.5 6.26505Z" fill="#0094FF"/>
</svg>
