<svg width="30" height="30" viewBox="0 0 30 30" fill="none" xmlns="http://www.w3.org/2000/svg">
<circle cx="15" cy="15" r="15" fill="#0094FF"/>
<path d="M5.11803 13.5L15 8.55902L24.882 13.5L15 18.441L5.11803 13.5Z" stroke="white"/>
<mask id="path-3-inside-1" fill="white">
<path fill-rule="evenodd" clip-rule="evenodd" d="M9.06843 21.2727C9.4455 19.9672 10.0182 18.812 10.7327 17.8857L14.9613 20C14.9742 20 14.9871 20 15 20C15.0129 20 15.0258 20 15.0387 20L19.2673 17.8857C19.9818 18.812 20.5545 19.9672 20.9315 21.2727C20.9766 21.3468 21 21.4227 21 21.5C21 21.506 20.9999 21.5119 20.9996 21.5179C20.9997 21.5184 20.9998 21.5189 21 21.5194H20.9995C20.958 22.3389 18.2878 23 15 23C11.7122 23 9.04199 22.3389 9.00049 21.5194H9C9.00014 21.5189 9.00028 21.5183 9.00041 21.5178C9.00014 21.5119 9 21.5059 9 21.5C9 21.4227 9.02337 21.3468 9.06843 21.2727Z"/>
</mask>
<path d="M10.7327 17.8857L11.1799 16.9913L10.4437 16.6232L9.94093 17.2749L10.7327 17.8857ZM9.06843 21.2727L9.92289 21.7922L9.99216 21.6783L10.0292 21.5502L9.06843 21.2727ZM14.9613 20L14.5141 20.8945L14.726 21.0004L14.9629 21L14.9613 20ZM15.0387 20L15.0371 21L15.274 21.0004L15.4859 20.8945L15.0387 20ZM19.2673 17.8857L20.059 17.2749L19.5563 16.6232L18.8201 16.9913L19.2673 17.8857ZM20.9315 21.2727L19.9708 21.5501L20.0078 21.6783L20.0771 21.7923L20.9315 21.2727ZM20.9996 21.5179L20.0007 21.4711L19.9935 21.6254L20.0331 21.7746L20.9996 21.5179ZM21 21.5194V22.5194H22.3003L21.9665 21.2626L21 21.5194ZM20.9995 21.5194V20.5194H20.0489L20.0008 21.4688L20.9995 21.5194ZM9.00049 21.5194L9.99921 21.4688L9.95113 20.5194H9.00049V21.5194ZM9 21.5194L8.03364 21.2622L7.69904 22.5194H9V21.5194ZM9.00041 21.5178L9.96675 21.7751L10.0065 21.6257L9.99933 21.4713L9.00041 21.5178ZM9.94093 17.2749C9.14037 18.3127 8.51518 19.5844 8.1077 20.9952L10.0292 21.5502C10.3758 20.35 10.896 19.3113 11.5245 18.4966L9.94093 17.2749ZM15.4085 19.1056L11.1799 16.9913L10.2855 18.7802L14.5141 20.8945L15.4085 19.1056ZM14.9629 21C14.9752 21 14.9876 21 15 21V19C14.9866 19 14.9731 19 14.9597 19L14.9629 21ZM15 21C15.0124 21 15.0247 21 15.0371 21L15.0403 19C15.0269 19 15.0134 19 15 19V21ZM18.8201 16.9913L14.5915 19.1056L15.4859 20.8945L19.7145 18.7802L18.8201 16.9913ZM21.8923 20.9952C21.4848 19.5844 20.8596 18.3127 20.059 17.2749L18.4755 18.4965C19.104 19.3113 19.6241 20.3499 19.9708 21.5501L21.8923 20.9952ZM20.0771 21.7923C20.0426 21.7354 20 21.6338 20 21.5H22C22 21.2116 21.9107 20.9582 21.7859 20.753L20.0771 21.7923ZM20 21.5C20 21.4904 20.0002 21.4808 20.0007 21.4711L21.9985 21.5646C21.9995 21.5431 22 21.5215 22 21.5H20ZM21.9665 21.2626C21.9663 21.2618 21.9661 21.2611 21.966 21.261C21.9659 21.2606 21.966 21.2609 21.9661 21.2611L20.0331 21.7746C20.0333 21.7754 20.0335 21.7761 20.0335 21.7763C20.0336 21.7766 20.0336 21.7764 20.0335 21.7761L21.9665 21.2626ZM20.9995 22.5194H21V20.5194H20.9995V22.5194ZM20.0008 21.4688C20.0182 21.125 20.2672 21.0805 20.0076 21.23C19.8155 21.3407 19.4768 21.4728 18.9773 21.5962C17.9923 21.8395 16.587 22 15 22V24C16.7009 24 18.2746 23.8299 19.457 23.5378C20.0411 23.3935 20.5833 23.2066 21.0062 22.9629C21.3618 22.758 21.9601 22.3235 21.9982 21.57L20.0008 21.4688ZM15 22C13.413 22 12.0077 21.8395 11.0227 21.5962C10.5232 21.4728 10.1845 21.3407 9.99236 21.23C9.73284 21.0805 9.9818 21.125 9.99921 21.4688L8.00177 21.57C8.03993 22.3235 8.63823 22.758 8.99378 22.9629C9.41673 23.2066 9.95886 23.3935 10.543 23.5378C11.7254 23.8299 13.2991 24 15 24V22ZM9 22.5194H9.00049V20.5194H9V22.5194ZM8.03408 21.2605C8.03394 21.2611 8.03379 21.2616 8.03364 21.2622L9.96636 21.7766C9.96649 21.7761 9.96662 21.7756 9.96675 21.7751L8.03408 21.2605ZM9.99933 21.4713C9.99978 21.4809 10 21.4904 10 21.5H8C8 21.5215 8.0005 21.5429 8.0015 21.5643L9.99933 21.4713ZM10 21.5C10 21.6338 9.95746 21.7354 9.92289 21.7922L8.21397 20.7532C8.08928 20.9583 8 21.2117 8 21.5H10Z" fill="white" mask="url(#path-3-inside-1)"/>
<path d="M15 13.4L20 11.2" stroke="white" stroke-linecap="round"/>
<path d="M20 17V16" stroke="white" stroke-linecap="round"/>
</svg>
