<svg width="30" height="34" viewBox="0 0 30 34" fill="none" xmlns="http://www.w3.org/2000/svg">
<path d="M16.5 2L17.3321 0.751944C16.8126 0.405618 16.133 0.417262 15.6257 0.781177C15.1184 1.14509 14.8895 1.78518 15.0511 2.38823L16.5 2ZM3 25.3827L2.61177 23.9338C2.00872 24.0954 1.56881 24.6136 1.5073 25.2349C1.44579 25.8562 1.77553 26.4506 2.33519 26.7273L3 25.3827ZM16.5 2C15.0511 2.38823 15.051 2.38788 15.0509 2.38757C15.0509 2.38751 15.0508 2.38723 15.0508 2.38711C15.0507 2.38687 15.0507 2.38676 15.0507 2.38678C15.0507 2.38683 15.0509 2.38741 15.0512 2.38852C15.0518 2.39073 15.0529 2.39504 15.0545 2.4014C15.0578 2.41412 15.0632 2.43504 15.0704 2.46382C15.0847 2.52139 15.1063 2.61029 15.1331 2.7277C15.1868 2.96266 15.2615 3.31097 15.3412 3.75009C15.501 4.63027 15.6796 5.86502 15.7542 7.27648C15.9057 10.1454 15.6152 13.5325 14.0801 16.1913L16.6782 17.6913C18.6431 14.288 18.913 10.2045 18.75 7.11823C18.6673 5.55212 18.4698 4.1882 18.2929 3.21409C18.2043 2.72607 18.1204 2.33334 18.0577 2.05903C18.0263 1.92181 18.0002 1.81403 17.9814 1.73857C17.972 1.70084 17.9644 1.67117 17.9589 1.64992C17.9561 1.63929 17.9539 1.63077 17.9522 1.6244C17.9514 1.62121 17.9507 1.61856 17.9501 1.61646C17.9499 1.6154 17.9496 1.61449 17.9494 1.61371C17.9493 1.61332 17.9492 1.61283 17.9491 1.61264C17.949 1.61219 17.9489 1.61177 16.5 2ZM14.0801 16.1913C12.545 18.8502 9.75694 20.7953 7.19665 22.0985C5.93701 22.7397 4.77839 23.2024 3.93622 23.5041C3.51605 23.6546 3.17711 23.7641 2.94677 23.8351C2.83167 23.8705 2.74389 23.8963 2.68686 23.9127C2.65835 23.9208 2.63755 23.9267 2.62489 23.9302C2.61856 23.9319 2.61426 23.9331 2.61206 23.9337C2.61096 23.934 2.61038 23.9342 2.61033 23.9342C2.6103 23.9342 2.61041 23.9342 2.61065 23.9341C2.61077 23.9341 2.61105 23.934 2.61111 23.934C2.61142 23.9339 2.61177 23.9338 3 25.3827C3.38823 26.8316 3.38864 26.8315 3.38909 26.8313C3.38929 26.8313 3.38977 26.8312 3.39016 26.8311C3.39094 26.8308 3.39186 26.8306 3.39291 26.8303C3.39502 26.8297 3.39766 26.829 3.40084 26.8282C3.4072 26.8264 3.41569 26.8241 3.42627 26.8212C3.44742 26.8153 3.4769 26.807 3.51428 26.7963C3.58903 26.7749 3.69543 26.7436 3.82995 26.7021C4.09887 26.6193 4.48095 26.4956 4.94789 26.3284C5.87994 25.9945 7.15986 25.4835 8.55751 24.7721C11.3118 23.3702 14.7133 21.0947 16.6782 17.6913L14.0801 16.1913ZM21.8744 20.6913C19.1483 25.413 14.8048 26.3165 10.8719 25.9771C8.89725 25.8066 7.08434 25.3199 5.75533 24.8688C5.09414 24.6443 4.56103 24.4316 4.19748 24.277C4.0159 24.1997 3.87718 24.1373 3.78654 24.0954C3.74124 24.0745 3.708 24.0588 3.68748 24.049C3.67723 24.0441 3.67015 24.0406 3.66634 24.0388C3.66444 24.0379 3.66335 24.0373 3.66309 24.0372C3.66296 24.0371 3.66304 24.0372 3.66333 24.0373C3.66347 24.0374 3.66384 24.0376 3.66391 24.0376C3.66433 24.0378 3.66481 24.0381 3 25.3827C2.33519 26.7273 2.33577 26.7276 2.33641 26.7279C2.33669 26.7281 2.33738 26.7284 2.33795 26.7287C2.33908 26.7292 2.34042 26.7299 2.34198 26.7307C2.3451 26.7322 2.34907 26.7341 2.35389 26.7365C2.36351 26.7412 2.3765 26.7474 2.39278 26.7552C2.42533 26.7708 2.47104 26.7924 2.52924 26.8193C2.64561 26.873 2.81214 26.9478 3.02348 27.0377C3.44578 27.2173 4.04926 27.4578 4.79104 27.7096C6.26799 28.2109 8.32654 28.7685 10.614 28.966C15.2053 29.3622 20.9485 28.295 24.4724 22.1913L21.8744 20.6913ZM16.5 2C15.6679 3.24806 15.6675 3.24776 15.6671 3.2475C15.667 3.24746 15.6667 3.24723 15.6665 3.24714C15.6663 3.24696 15.6662 3.24691 15.6663 3.24699C15.6666 3.24716 15.6676 3.24783 15.6693 3.24902C15.6728 3.25139 15.6793 3.2558 15.6887 3.26223C15.7075 3.27509 15.7377 3.29601 15.7785 3.32479C15.86 3.38236 15.9835 3.47126 16.1412 3.58991C16.4568 3.82745 16.9076 4.18276 17.4326 4.64315C18.4878 5.56854 19.8158 6.89519 20.9507 8.5201C23.2111 11.7564 24.6004 15.9697 21.8744 20.6913L24.4724 22.1913C27.9964 16.0877 26.049 10.5803 23.4102 6.80226C22.0955 4.91999 20.5833 3.41605 19.4107 2.38765C18.8217 1.87114 18.3117 1.46875 17.945 1.19282C17.7615 1.05473 17.6134 0.947945 17.5087 0.874023C17.4564 0.837051 17.4148 0.808267 17.385 0.787863C17.3702 0.777661 17.3582 0.76955 17.3494 0.763557C17.3449 0.76056 17.3413 0.758091 17.3384 0.756155C17.3369 0.755187 17.3357 0.754352 17.3346 0.75365C17.3341 0.753299 17.3335 0.752872 17.3332 0.752697C17.3326 0.752304 17.3321 0.751944 16.5 2Z" fill="#8000FF"/>
<path d="M3.23694 10.1325L3 8L2.76306 10.1325C2.66613 11.0048 2.01174 11.712 1.14952 11.8763L0.5 12L1.14952 12.1237C2.01174 12.288 2.66613 12.9952 2.76306 13.8675L3 16L3.23694 13.8675C3.33387 12.9952 3.98826 12.288 4.85048 12.1237L5.5 12L4.85048 11.8763C3.98826 11.712 3.33387 11.0048 3.23694 10.1325Z" stroke="#8000FF" stroke-linecap="round" stroke-linejoin="round"/>
<path d="M9.73694 6.13247L9.5 4L9.26306 6.13247C9.16613 7.00483 8.51174 7.71205 7.64952 7.87628L7 8L7.64952 8.12372C8.51174 8.28795 9.16613 8.99517 9.26306 9.86753L9.5 12L9.73694 9.86753C9.83387 8.99517 10.4883 8.28795 11.3505 8.12372L12 8L11.3505 7.87628C10.4883 7.71205 9.83387 7.00483 9.73694 6.13247Z" stroke="#8000FF" stroke-linecap="round" stroke-linejoin="round"/>
</svg>
