<svg width="30" height="30" viewBox="0 0 30 30" fill="none" xmlns="http://www.w3.org/2000/svg">
<circle cx="15" cy="15" r="15" fill="#219653"/>
<circle cx="15" cy="15" r="15" fill="#219653"/>
<path d="M8.28176 8.28171L8.42881 7.80382L7.52613 7.52608L7.80387 8.42876L8.28176 8.28171ZM21.4862 21.4861L21.6035 21.9722L21.9005 21.9005L21.9722 21.6034L21.4862 21.4861ZM21.996 19.3741L22.482 19.4914L21.996 19.3741ZM17.25 11.0412L17.103 11.5191L17.25 11.0412ZM19.3742 21.9959L19.4915 22.482L19.3742 21.9959ZM7.80387 8.42876L10.5633 17.397L11.5191 17.1029L8.75965 8.13467L7.80387 8.42876ZM19.4915 22.482L21.6035 21.9722L21.3689 21.0001L19.2568 21.5099L19.4915 22.482ZM21.9722 21.6034L22.482 19.4914L21.5099 19.2568L21.0001 21.3688L21.9722 21.6034ZM17.397 10.5633L8.42881 7.80382L8.13472 8.7596L17.103 11.5191L17.397 10.5633ZM22.482 19.4914C23.4118 15.6394 21.1845 11.7287 17.397 10.5633L17.103 11.5191C20.3854 12.529 22.3158 15.9183 21.5099 19.2568L22.482 19.4914ZM10.5633 17.397C11.7287 21.1845 15.6394 23.4118 19.4915 22.482L19.2568 21.5099C15.9184 22.3157 12.5291 20.3854 11.5191 17.1029L10.5633 17.397Z" fill="white"/>
<line x1="15.7379" y1="15.6176" x2="22.66" y2="22.5397" stroke="white" stroke-linecap="round"/>
</svg>
