<svg width="50" height="50" viewBox="0 0 50 50" fill="none" xmlns="http://www.w3.org/2000/svg">
<circle cx="25.5" cy="25" r="10" stroke="#FFA800" stroke-width="5"/>
<path fill-rule="evenodd" clip-rule="evenodd" d="M40.9284 26.5C40.9758 26.0064 41 25.506 41 25C41 24.494 40.9758 23.9936 40.9284 23.5H48.5C49.3284 23.5 50 24.1716 50 25C50 25.8284 49.3284 26.5 48.5 26.5H40.9284ZM10.0716 26.5H1.5C0.671573 26.5 0 25.8284 0 25C0 24.1716 0.671573 23.5 1.5 23.5H10.0716C10.0242 23.9936 10 24.494 10 25C10 25.506 10.0242 26.0064 10.0716 26.5Z" fill="#FFA800"/>
<path fill-rule="evenodd" clip-rule="evenodd" d="M26.5 9.07165C26.0064 9.02425 25.506 9 25 9C24.494 9 23.9936 9.02425 23.5 9.07165L23.5 1.5C23.5 0.671574 24.1716 -2.93554e-08 25 -6.55671e-08C25.8284 -1.01779e-07 26.5 0.671574 26.5 1.5L26.5 9.07165ZM26.5 39.9284L26.5 48.5C26.5 49.3284 25.8284 50 25 50C24.1716 50 23.5 49.3284 23.5 48.5L23.5 39.9284C23.9936 39.9758 24.494 40 25 40C25.506 40 26.0064 39.9758 26.5 39.9284Z" fill="#FFA800"/>
<path fill-rule="evenodd" clip-rule="evenodd" d="M37.3238 14.7975C37.0082 14.415 36.6716 14.044 36.3138 13.6862C35.9559 13.3284 35.585 12.9917 35.2024 12.6762L40.5564 7.32227C41.1422 6.73648 42.0919 6.73648 42.6777 7.32227C43.2635 7.90805 43.2635 8.8578 42.6777 9.44359L37.3238 14.7975ZM15.5048 36.6165L9.4437 42.6776C8.85791 43.2634 7.90817 43.2634 7.32238 42.6776C6.73659 42.0918 6.73659 41.1421 7.32238 40.5563L13.3834 34.4952C13.699 34.8778 14.0356 35.2487 14.3934 35.6065C14.7513 35.9644 15.1222 36.301 15.5048 36.6165Z" fill="#FFA800"/>
<path fill-rule="evenodd" clip-rule="evenodd" d="M34.9407 37.562C35.3233 37.2465 35.6942 36.9099 36.0521 36.552C36.4099 36.1942 36.7465 35.8233 37.0621 35.4407L42.416 40.7947C43.0018 41.3805 43.0018 42.3302 42.416 42.916C41.8302 43.5018 40.8805 43.5018 40.2947 42.916L34.9407 37.562ZM13.1217 15.7431L7.06068 9.68198C6.47489 9.09619 6.47489 8.14645 7.06068 7.56066C7.64646 6.97487 8.59621 6.97487 9.182 7.56066L15.2431 13.6217C14.8605 13.9372 14.4896 14.2739 14.1317 14.6317C13.7739 14.9895 13.4373 15.3605 13.1217 15.7431Z" fill="#FFA800"/>
</svg>
