<svg width="31" height="29" viewBox="0 0 31 29" fill="none" xmlns="http://www.w3.org/2000/svg">
<path fill-rule="evenodd" clip-rule="evenodd" d="M18.7802 6.63916H5C4.10439 6.63916 3.34627 7.22785 3.09149 8.03938L0 11.1309V8.63916C0 5.87774 2.23858 3.63916 5 3.63916H20C20.5369 3.63916 21.0541 3.72379 21.5389 3.88045L18.7802 6.63916ZM22 13.6255V23.6392C22 24.7437 21.1046 25.6392 20 25.6392H5C3.89543 25.6392 3 24.7437 3 23.6392V16.1309L0 13.1309V23.6392C0 26.4006 2.23858 28.6392 5 28.6392H20C22.7614 28.6392 25 26.4006 25 23.6392V10.6255L22 13.6255Z" fill="#0094FF"/>
<path fill-rule="evenodd" clip-rule="evenodd" d="M11.3199 23.0697L11.3099 23.0797L0.244019 12.0139L4.09301 8.16489L11.3341 15.406L26.7401 0L30.5891 3.84899L11.3441 23.094L11.3199 23.0697Z" fill="#0094FF"/>
</svg>
