<svg width="31" height="29" viewBox="0 0 31 29" fill="none" xmlns="http://www.w3.org/2000/svg">
<path fill-rule="evenodd" clip-rule="evenodd" d="M18.7802 7H5C4.10439 7 3.34627 7.58869 3.09149 8.40022L0 11.4917V9C0 6.23858 2.23858 4 5 4H20C20.5369 4 21.0541 4.08463 21.5389 4.24129L18.7802 7ZM22 13.9864V24C22 25.1046 21.1046 26 20 26H5C3.89543 26 3 25.1046 3 24V16.4917L0 13.4917V24C0 26.7614 2.23858 29 5 29H20C22.7614 29 25 26.7614 25 24V10.9864L22 13.9864Z" fill="#0094FF"/>
<path fill-rule="evenodd" clip-rule="evenodd" d="M11.3199 23.4306L11.3099 23.4406L0.244019 12.3747L4.09301 8.52573L11.3341 15.7668L26.7401 0.36084L30.5891 4.20983L11.3441 23.4548L11.3199 23.4306Z" fill="#0094FF"/>
</svg>
