<svg width="17" height="27" viewBox="0 0 17 27" fill="none" xmlns="http://www.w3.org/2000/svg">
<circle cx="8.5" cy="5.5" r="4.5" stroke="#0094FF" stroke-width="2"/>
<mask id="path-2-inside-1" fill="white">
<path fill-rule="evenodd" clip-rule="evenodd" d="M0 26.7841H17C15.676 18.1317 12.3695 12 8.49999 12C4.63053 12 1.32402 18.1317 0 26.7841Z"/>
</mask>
<path d="M0 26.7841L-1.97699 26.4815L-2.32933 28.7841H0V26.7841ZM17 26.7841V28.7841H19.3293L18.977 26.4815L17 26.7841ZM0 28.7841H17V24.7841H0V28.7841ZM8.49999 14C9.30364 14 10.5793 14.6796 11.9629 17.1305C13.2812 19.4661 14.3835 22.9076 15.023 27.0866L18.977 26.4815C18.2924 22.0082 17.0795 18.0577 15.4462 15.1643C13.8781 12.3863 11.5658 10 8.49999 10V14ZM1.97699 27.0866C2.61648 22.9076 3.71879 19.4661 5.03713 17.1305C6.42066 14.6796 7.69634 14 8.49999 14V10C5.43418 10 3.12187 12.3863 1.55378 15.1643C-0.0795054 18.0577 -1.29245 22.0082 -1.97699 26.4815L1.97699 27.0866Z" fill="#0094FF" mask="url(#path-2-inside-1)"/>
</svg>
