<svg width="30" height="30" viewBox="0 0 30 30" fill="none" xmlns="http://www.w3.org/2000/svg">
<circle cx="15" cy="15" r="15" fill="white"/>
<path d="M6.60005 11.4L14.1 15.7301L14.1 7.06982L6.60005 11.4ZM9.30005 21.45C8.88584 21.45 8.55005 21.7857 8.55005 22.2C8.55005 22.6142 8.88584 22.95 9.30005 22.95V21.45ZM17.8 10.65L13.35 10.65V12.15L17.8 12.15V10.65ZM9.30005 22.95H17.8V21.45H9.30005V22.95ZM23.55 17.2V16.4H22.05V17.2H23.55ZM17.8 22.95C20.9757 22.95 23.55 20.3756 23.55 17.2H22.05C22.05 19.5472 20.1473 21.45 17.8 21.45V22.95ZM17.8 12.15C20.1473 12.15 22.05 14.0527 22.05 16.4H23.55C23.55 13.2243 20.9757 10.65 17.8 10.65V12.15Z" fill="#0094FF"/>
</svg>
