<svg width="86" height="86" viewBox="0 0 86 86" fill="none" xmlns="http://www.w3.org/2000/svg">
<circle cx="43" cy="43" r="43" fill="#E1F1FF"/>
<path fill-rule="evenodd" clip-rule="evenodd" d="M50.7538 51.2462L46 56L38.1382 63.8618L42.5 78L50.7538 51.2462ZM31.1231 41.1231L28 31H28.0041C27.3552 29.2907 27 27.4368 27 25.5C27 16.9396 33.9396 10 42.5 10C51.0604 10 58 16.9396 58 25.5C58 26.8935 57.8161 28.2441 57.4713 29.5287L38.5 48.5L31.1231 41.1231Z" fill="#0094FF"/>
<path fill-rule="evenodd" clip-rule="evenodd" d="M38.2782 61.9056L38.2635 61.9203L22 45.6568L27.6569 40L38.299 50.6421L60.9411 28L66.598 33.6569L38.3137 61.9411L38.2782 61.9056Z" fill="black"/>
<circle cx="42.5" cy="25.5" r="8.5" fill="white"/>
</svg>
