<svg width="186" height="42" viewBox="0 0 186 42" fill="none" xmlns="http://www.w3.org/2000/svg">
<path d="M7.60091 10.864H2.66891V7.84H16.4569V10.864H11.6689V37H7.60091V10.864ZM22.1958 37.288C21.4038 37.288 20.6838 37.06 20.0358 36.604C19.4118 36.148 18.9198 35.548 18.5598 34.804C18.1998 34.06 18.0198 33.28 18.0198 32.464C18.0198 30.832 18.3678 29.512 19.0638 28.504C19.7598 27.472 20.6478 26.656 21.7278 26.056C22.8078 25.456 24.3078 24.772 26.2278 24.004V22.528C26.2278 21.16 26.0838 20.2 25.7958 19.648C25.5318 19.072 24.9798 18.784 24.1398 18.784C22.6758 18.784 21.9438 19.768 21.9438 21.736V22.78L18.1278 22.636C18.1758 20.332 18.7038 18.64 19.7118 17.56C20.7198 16.456 22.2798 15.904 24.3918 15.904C26.3838 15.904 27.8238 16.456 28.7118 17.56C29.6238 18.64 30.0798 20.284 30.0798 22.492V31.996C30.0798 33.556 30.1998 35.224 30.4398 37H26.9118C26.6478 35.632 26.4798 34.612 26.4078 33.94C26.1198 34.876 25.6158 35.668 24.8958 36.316C24.1998 36.964 23.2998 37.288 22.1958 37.288ZM23.7078 33.976C24.2118 33.976 24.7038 33.784 25.1838 33.4C25.6638 32.992 26.0118 32.608 26.2278 32.248V26.344C25.1958 26.92 24.3918 27.424 23.8158 27.856C23.2638 28.264 22.7958 28.744 22.4118 29.296C22.0518 29.848 21.8718 30.508 21.8718 31.276C21.8718 32.14 22.0278 32.812 22.3398 33.292C22.6518 33.748 23.1078 33.976 23.7078 33.976ZM38.6039 37.288C36.9239 37.288 35.5559 36.76 34.4999 35.704C33.4679 34.648 32.8799 33.232 32.7359 31.456L35.9399 30.484C36.1319 31.828 36.4559 32.824 36.9119 33.472C37.3919 34.12 38.0639 34.444 38.9279 34.444C39.5999 34.444 40.1159 34.252 40.4759 33.868C40.8599 33.46 41.0519 32.92 41.0519 32.248C41.0519 31.648 40.9199 31.108 40.6559 30.628C40.3919 30.148 39.9599 29.656 39.3599 29.152L35.7959 26.092C34.9799 25.396 34.3439 24.664 33.8879 23.896C33.4559 23.104 33.2399 22.144 33.2399 21.016C33.2399 19.408 33.7199 18.16 34.6799 17.272C35.6399 16.36 36.9479 15.904 38.6039 15.904C40.1879 15.904 41.4239 16.42 42.3119 17.452C43.2239 18.46 43.7519 19.768 43.8959 21.376L41.3039 22.348C41.1359 21.172 40.8599 20.284 40.4759 19.684C40.0919 19.06 39.5159 18.748 38.7479 18.748C38.1239 18.748 37.6199 18.952 37.2359 19.36C36.8759 19.768 36.6959 20.272 36.6959 20.872C36.6959 21.64 37.0439 22.336 37.7399 22.96L41.4119 26.344C42.3479 27.208 43.0679 28.06 43.5719 28.9C44.0999 29.74 44.3639 30.76 44.3639 31.96C44.3639 33.688 43.8479 35.008 42.8159 35.92C41.7839 36.832 40.3799 37.288 38.6039 37.288ZM47.3168 7.804H51.1688V25.192L56.7848 16.192H60.8168L55.9208 24.328L60.6728 37H56.8208L52.9328 26.344L51.1688 29.008V36.964H47.3168V7.804ZM66.4224 37.288C65.6304 37.288 64.9104 37.06 64.2624 36.604C63.6384 36.148 63.1464 35.548 62.7864 34.804C62.4264 34.06 62.2464 33.28 62.2464 32.464C62.2464 30.832 62.5944 29.512 63.2904 28.504C63.9864 27.472 64.8744 26.656 65.9544 26.056C67.0344 25.456 68.5344 24.772 70.4544 24.004V22.528C70.4544 21.16 70.3104 20.2 70.0224 19.648C69.7584 19.072 69.2064 18.784 68.3664 18.784C66.9024 18.784 66.1704 19.768 66.1704 21.736V22.78L62.3544 22.636C62.4024 20.332 62.9304 18.64 63.9384 17.56C64.9464 16.456 66.5064 15.904 68.6184 15.904C70.6104 15.904 72.0504 16.456 72.9384 17.56C73.8504 18.64 74.3064 20.284 74.3064 22.492V31.996C74.3064 33.556 74.4264 35.224 74.6664 37H71.1384C70.8744 35.632 70.7064 34.612 70.6344 33.94C70.3464 34.876 69.8424 35.668 69.1224 36.316C68.4264 36.964 67.5264 37.288 66.4224 37.288ZM67.9344 33.976C68.4384 33.976 68.9304 33.784 69.4104 33.4C69.8904 32.992 70.2384 32.608 70.4544 32.248V26.344C69.4224 26.92 68.6184 27.424 68.0424 27.856C67.4904 28.264 67.0224 28.744 66.6384 29.296C66.2784 29.848 66.0984 30.508 66.0984 31.276C66.0984 32.14 66.2544 32.812 66.5664 33.292C66.8784 33.748 67.3344 33.976 67.9344 33.976ZM83.2693 37.288C80.2693 37.288 78.7693 35.632 78.7693 32.32V18.748H76.5733V16.192H78.7693V10.108H82.6213V16.192H85.9693V18.748H82.6213V32.068C82.6213 32.908 82.7533 33.496 83.0173 33.832C83.2813 34.168 83.7853 34.336 84.5293 34.336C85.0093 34.336 85.4773 34.3 85.9333 34.228V37.072C84.9733 37.216 84.0853 37.288 83.2693 37.288ZM88.9075 7.84H92.7595V18.352C94.4875 16.72 96.2275 15.904 97.9795 15.904C99.1075 15.904 99.8995 16.312 100.355 17.128C100.835 17.944 101.075 18.952 101.075 20.152V37H97.2235V21.268C97.2235 20.476 97.1035 19.888 96.8635 19.504C96.6235 19.12 96.1915 18.928 95.5675 18.928C94.7275 18.928 93.7915 19.384 92.7595 20.296V37H88.9075V7.84ZM110.555 37.288C108.347 37.288 106.775 36.64 105.839 35.344C104.927 34.024 104.471 32.116 104.471 29.62V23.572C104.471 21.076 104.927 19.18 105.839 17.884C106.775 16.564 108.347 15.904 110.555 15.904C112.739 15.904 114.287 16.564 115.199 17.884C116.135 19.18 116.603 21.076 116.603 23.572V29.62C116.603 32.116 116.135 34.024 115.199 35.344C114.287 36.64 112.739 37.288 110.555 37.288ZM110.555 34.444C111.251 34.444 111.755 34.24 112.067 33.832C112.379 33.424 112.571 32.92 112.643 32.32C112.715 31.72 112.751 30.904 112.751 29.872V23.356C112.751 22.324 112.715 21.508 112.643 20.908C112.571 20.284 112.379 19.768 112.067 19.36C111.755 18.952 111.251 18.748 110.555 18.748C109.859 18.748 109.343 18.952 109.007 19.36C108.695 19.768 108.503 20.284 108.431 20.908C108.359 21.508 108.323 22.324 108.323 23.356V29.872C108.323 30.904 108.359 31.72 108.431 32.32C108.503 32.92 108.695 33.424 109.007 33.832C109.343 34.24 109.859 34.444 110.555 34.444ZM120.124 16.192H123.976V18.244C125.632 16.684 127.324 15.904 129.052 15.904C130.18 15.904 130.984 16.312 131.464 17.128C131.944 17.944 132.184 18.952 132.184 20.152V37H128.332V21.268C128.332 20.476 128.212 19.888 127.972 19.504C127.732 19.12 127.3 18.928 126.676 18.928C125.908 18.928 125.008 19.36 123.976 20.224V37H120.124V16.192Z" fill="black"/>
<path d="M148.504 37.396C145.744 37.396 143.752 36.544 142.528 34.84C141.328 33.112 140.728 30.628 140.728 27.388V17.596C140.728 14.26 141.352 11.752 142.6 10.072C143.848 8.368 145.996 7.516 149.044 7.516C151.924 7.516 153.988 8.236 155.236 9.676C156.484 11.092 157.108 13.204 157.108 16.012V17.524H152.032V15.868C152.032 14.812 151.96 13.972 151.816 13.348C151.696 12.724 151.42 12.244 150.988 11.908C150.58 11.572 149.956 11.404 149.116 11.404C148.228 11.404 147.568 11.62 147.136 12.052C146.704 12.484 146.416 13.036 146.272 13.708C146.152 14.38 146.092 15.256 146.092 16.336V28.54C146.092 30.196 146.308 31.432 146.74 32.248C147.196 33.064 148.036 33.472 149.26 33.472C150.46 33.472 151.288 33.04 151.744 32.176C152.224 31.312 152.464 30.016 152.464 28.288V25.552H149.332V22.204H157.252V37H153.796L153.436 34.156C152.524 36.316 150.88 37.396 148.504 37.396ZM167.281 37.324C165.049 37.324 163.381 36.712 162.277 35.488C161.173 34.24 160.621 32.44 160.621 30.088V23.104C160.621 20.752 161.173 18.964 162.277 17.74C163.381 16.492 165.049 15.868 167.281 15.868C169.513 15.868 171.181 16.492 172.285 17.74C173.413 18.964 173.977 20.752 173.977 23.104V30.088C173.977 32.44 173.413 34.24 172.285 35.488C171.181 36.712 169.513 37.324 167.281 37.324ZM167.317 33.94C168.061 33.94 168.553 33.652 168.793 33.076C169.033 32.476 169.153 31.6 169.153 30.448V22.78C169.153 21.628 169.033 20.752 168.793 20.152C168.553 19.552 168.061 19.252 167.317 19.252C166.549 19.252 166.045 19.552 165.805 20.152C165.565 20.752 165.445 21.628 165.445 22.78V30.448C165.445 31.6 165.565 32.476 165.805 33.076C166.045 33.652 166.549 33.94 167.317 33.94ZM177.292 7.876H182.188L180.46 30.16H178.732L177.292 7.876ZM177.22 32.248H181.972V37H177.22V32.248Z" fill="#0094FF"/>
</svg>
